<svg xmlns="http://www.w3.org/2000/svg" viewBox="0 0 1440 900" role="img" aria-labelledby="title desc">
  <title id="title">IDX Exchange property search interface</title>
  <desc id="desc">A stylized property search dashboard with filters, listing cards, and a map.</desc>
  <rect width="1440" height="900" fill="#e8eee9"/>
  <rect x="50" y="45" width="1340" height="810" rx="24" fill="#fbfaf5" stroke="#203b32" stroke-width="3"/>
  <rect x="50" y="45" width="1340" height="90" rx="24" fill="#203b32"/>
  <rect x="50" y="110" width="1340" height="25" fill="#203b32"/>
  <circle cx="102" cy="90" r="20" fill="#ef6a45"/>
  <text x="140" y="102" fill="#fbfaf5" font-family="Arial, sans-serif" font-size="34" font-weight="700">IDX EXCHANGE</text>
  <rect x="935" y="72" width="160" height="38" rx="19" fill="#f7f2e8" opacity=".18"/>
  <rect x="1115" y="72" width="220" height="38" rx="19" fill="#ef6a45"/>
  <rect x="86" y="171" width="580" height="62" rx="12" fill="#fff" stroke="#b8c4bc" stroke-width="2"/>
  <circle cx="122" cy="202" r="12" fill="none" stroke="#203b32" stroke-width="3"/>
  <path d="m131 211 13 13" stroke="#203b32" stroke-width="3"/>
  <text x="166" y="211" fill="#66716b" font-family="Arial, sans-serif" font-size="20">Search city, neighborhood, or ZIP</text>
  <g fill="#fff" stroke="#b8c4bc" stroke-width="2">
    <rect x="686" y="171" width="142" height="62" rx="12"/>
    <rect x="844" y="171" width="142" height="62" rx="12"/>
    <rect x="1002" y="171" width="142" height="62" rx="12"/>
  </g>
  <text x="716" y="209" fill="#203b32" font-family="Arial, sans-serif" font-size="18">Price</text>
  <text x="874" y="209" fill="#203b32" font-family="Arial, sans-serif" font-size="18">Beds</text>
  <text x="1027" y="209" fill="#203b32" font-family="Arial, sans-serif" font-size="18">Home type</text>
  <rect x="1160" y="171" width="180" height="62" rx="12" fill="#203b32"/>
  <text x="1209" y="210" fill="#fff" font-family="Arial, sans-serif" font-size="18">Search</text>
  <text x="86" y="286" fill="#203b32" font-family="Georgia, serif" font-size="38">Homes for you</text>
  <text x="86" y="317" fill="#66716b" font-family="Arial, sans-serif" font-size="16">238 listings · sorted by relevance</text>
  <g>
    <rect x="86" y="350" width="365" height="213" rx="14" fill="#d5a373"/>
    <path d="M86 492 190 401l70 60 72-78 119 102v78H86z" fill="#89644c" opacity=".75"/>
    <circle cx="366" cy="397" r="23" fill="#fff" opacity=".92"/>
    <path d="M357 396c0-10 13-13 18-5 5-8 18-5 18 5 0 11-18 21-18 21s-18-10-18-21z" fill="#ef6a45"/>
    <text x="86" y="607" fill="#203b32" font-family="Arial, sans-serif" font-size="29" font-weight="700">$785,000</text>
    <text x="86" y="641" fill="#47544d" font-family="Arial, sans-serif" font-size="18">3 bd  ·  2 ba  ·  1,840 sqft</text>
    <text x="86" y="673" fill="#66716b" font-family="Arial, sans-serif" font-size="16">Modern home near downtown</text>
  </g>
  <g>
    <rect x="481" y="350" width="365" height="213" rx="14" fill="#8ea5a4"/>
    <path d="M481 488 585 409l74 54 76-95 111 117v78H481z" fill="#506b6c" opacity=".72"/>
    <circle cx="761" cy="397" r="23" fill="#fff" opacity=".92"/>
    <path d="M752 396c0-10 13-13 18-5 5-8 18-5 18 5 0 11-18 21-18 21s-18-10-18-21z" fill="#ef6a45"/>
    <text x="481" y="607" fill="#203b32" font-family="Arial, sans-serif" font-size="29" font-weight="700">$624,500</text>
    <text x="481" y="641" fill="#47544d" font-family="Arial, sans-serif" font-size="18">2 bd  ·  2 ba  ·  1,420 sqft</text>
    <text x="481" y="673" fill="#66716b" font-family="Arial, sans-serif" font-size="16">Light-filled corner condominium</text>
  </g>
  <rect x="876" y="350" width="464" height="417" rx="14" fill="#dbe2da"/>
  <path d="M876 440c126 35 169-60 268-17 75 33 97 121 196 83M915 350c33 93-31 172 48 232 93 71 69 122 73 185M1197 350c-34 105 28 169-38 251-40 50-15 112-7 166" fill="none" stroke="#fff" stroke-width="12" opacity=".9"/>
  <path d="M876 665c119-51 216 22 310-32 61-35 104-25 154-11" fill="none" stroke="#fff" stroke-width="8" opacity=".9"/>
  <g fill="#ef6a45" stroke="#fff" stroke-width="5">
    <circle cx="989" cy="469" r="17"/><circle cx="1127" cy="535" r="17"/><circle cx="1249" cy="451" r="17"/><circle cx="1204" cy="673" r="17"/><circle cx="1031" cy="684" r="17"/>
  </g>
  <rect x="86" y="718" width="760" height="49" rx="10" fill="#e9e5dc"/>
  <rect x="86" y="718" width="430" height="49" rx="10" fill="#d7ddd5"/>
</svg>

